<?xml version="1.0" encoding="utf-8"?>
<!-- Generator: Adobe Illustrator 16.0.4, SVG Export Plug-In . SVG Version: 6.00 Build 0)  -->
<!DOCTYPE svg PUBLIC "-//W3C//DTD SVG 1.1//EN" "http://www.w3.org/Graphics/SVG/1.1/DTD/svg11.dtd">
<svg version="1.1" xmlns="http://www.w3.org/2000/svg" xmlns:xlink="http://www.w3.org/1999/xlink" x="0px" y="0px" width="100px"
	 height="100px" viewBox="0 0 100 100" enable-background="new 0 0 100 100" xml:space="preserve">
<g id="Layer_1">
	<g>
		<path d="M82.52,25.831l-9.629,9.521c-6.092-6.445-13.193-9.668-21.307-9.668c-7.07,0-12.992,2.344-17.766,7.031
			c-4.771,4.688-7.158,10.384-7.158,17.09c0,6.934,2.477,12.81,7.43,17.627s11.062,7.227,18.33,7.227
			c4.725,0,8.709-0.993,11.951-2.979s5.857-5.095,7.846-9.326H51.416V49.513h36.133l0.098,3.027c0,6.282-1.629,12.239-4.883,17.871
			c-3.256,5.632-7.471,9.929-12.646,12.891s-11.248,4.443-18.213,4.443c-7.455,0-14.104-1.62-19.947-4.858
			c-5.844-3.239-10.465-7.854-13.867-13.843s-5.102-12.451-5.102-19.385c0-9.505,3.141-17.773,9.424-24.805
			c7.453-8.366,17.154-12.549,29.102-12.549c6.25,0,12.092,1.155,17.529,3.467C73.633,17.726,78.125,21.078,82.52,25.831z"/>
	</g>
</g>
<g id="Layer_2">
	<line fill="#CCCCCC" x1="100.116" y1="43.346" x2="56.77" y2="0"/>
	<line fill="#CCCCCC" x1="0.5" y1="49.5" x2="100.5" y2="49.5"/>
	<line fill="#CCCCCC" x1="-0.5" y1="62.5" x2="100.5" y2="62.5"/>
	<line fill="#CCCCCC" x1="100.271" y1="62.5" x2="37.769" y2="0"/>
	<line fill="#CCCCCC" x1="-0.5" y1="87.5" x2="100.5" y2="87.5"/>
	<line fill="#CCCCCC" x1="-0.5" y1="12.5" x2="100.5" y2="12.5"/>
	<line fill="#CCCCCC" x1="-0.5" y1="26.5" x2="100.5" y2="26.5"/>
	<line fill="#CCCCCC" x1="0.5" y1="74.5" x2="101.5" y2="74.5"/>
	<line fill="#CCCCCC" x1="51.5" y1="99.5" x2="51.5" y2="-0.5"/>
	<line fill="#CCCCCC" x1="11.5" y1="100.5" x2="11.5" y2="-1.5"/>
	<line fill="#CCCCCC" x1="87.5" y1="99.5" x2="87.5" y2="-0.5"/>
</g>
</svg>
